<svg width="212" height="107" viewBox="0 0 212 107" fill="none" xmlns="http://www.w3.org/2000/svg">
<path d="M1.8852 83.5338H5.02721L10.4901 96.8727H10.6912L16.1541 83.5338H19.2961V100.693H16.8328V88.2762H16.6736L11.6129 100.668H9.56846L4.50773 88.2678H4.34854V100.693H1.8852V83.5338ZM28.4058 100.953C27.1379 100.953 26.0458 100.682 25.1298 100.14C24.2193 99.593 23.5155 98.8249 23.0183 97.8362C22.5268 96.842 22.281 95.6773 22.281 94.3423C22.281 93.0241 22.5268 91.8622 23.0183 90.8568C23.5155 89.8513 24.2081 89.0665 25.0963 88.5024C25.99 87.9382 27.0345 87.6561 28.2299 87.6561C28.956 87.6561 29.6598 87.7762 30.3413 88.0164C31.0228 88.2566 31.6344 88.6336 32.1762 89.1475C32.7181 89.6614 33.1454 90.3289 33.4582 91.15C33.771 91.9656 33.9274 92.957 33.9274 94.1245V95.0126H23.697V93.1358H31.4724C31.4724 92.4767 31.3384 91.8929 31.0703 91.3846C30.8021 90.8707 30.4251 90.4658 29.9391 90.1697C29.4588 89.8737 28.8946 89.7257 28.2466 89.7257C27.5428 89.7257 26.9284 89.8988 26.4033 90.2451C25.8838 90.5859 25.4817 91.0327 25.1968 91.5857C24.9175 92.1331 24.7779 92.728 24.7779 93.3704V94.8367C24.7779 95.6969 24.9287 96.4286 25.2303 97.0319C25.5375 97.6351 25.9648 98.096 26.5122 98.4144C27.0597 98.7272 27.6992 98.8836 28.431 98.8836C28.9058 98.8836 29.3387 98.8165 29.7297 98.6825C30.1207 98.5428 30.4586 98.3362 30.7435 98.0625C31.0284 97.7887 31.2462 97.4508 31.397 97.0486L33.7682 97.4759C33.5783 98.1742 33.2375 98.7858 32.746 99.3109C32.26 99.8304 31.6484 100.235 30.9111 100.526C30.1793 100.811 29.3442 100.953 28.4058 100.953ZM36.707 100.693V87.8237H39.1285V89.8681H39.2625C39.4971 89.1755 39.9105 88.6308 40.5026 88.2343C41.1002 87.8321 41.7761 87.631 42.5302 87.631C42.6866 87.631 42.8709 87.6366 43.0832 87.6477C43.301 87.6589 43.4714 87.6729 43.5943 87.6896V90.0859C43.4937 90.058 43.315 90.0273 43.0581 89.9938C42.8011 89.9547 42.5442 89.9351 42.2872 89.9351C41.6951 89.9351 41.1673 90.0608 40.7036 90.3122C40.2456 90.5579 39.8825 90.9015 39.6144 91.3427C39.3463 91.7784 39.2122 92.2756 39.2122 92.8342V100.693H36.707ZM50.7225 100.953C49.4768 100.953 48.4044 100.671 47.505 100.107C46.6113 99.5371 45.9243 98.7523 45.4439 97.7524C44.9635 96.7526 44.7233 95.6075 44.7233 94.3172C44.7233 93.0101 44.9691 91.8566 45.4606 90.8568C45.9522 89.8513 46.6448 89.0665 47.5386 88.5024C48.4323 87.9382 49.4852 87.6561 50.6973 87.6561C51.6748 87.6561 52.5462 87.8377 53.3115 88.2007C54.0767 88.5582 54.694 89.061 55.1632 89.7089C55.6379 90.3569 55.92 91.1137 56.0094 91.9795H53.5712C53.4371 91.3763 53.1299 90.8568 52.6496 90.4211C52.1748 89.9854 51.538 89.7676 50.7392 89.7676C50.041 89.7676 49.4293 89.9519 48.9043 90.3205C48.3848 90.6836 47.9798 91.2031 47.6894 91.879C47.3989 92.5493 47.2537 93.3425 47.2537 94.2585C47.2537 95.1969 47.3961 96.0069 47.681 96.6883C47.9659 97.3698 48.368 97.8977 48.8875 98.2719C49.4126 98.6462 50.0298 98.8333 50.7392 98.8333C51.214 98.8333 51.6441 98.7467 52.0295 98.5736C52.4205 98.3948 52.7473 98.1407 53.0098 97.8111C53.278 97.4815 53.4651 97.0849 53.5712 96.6213H56.0094C55.92 97.4536 55.6491 98.1965 55.1967 98.85C54.7442 99.5036 54.1382 100.017 53.3785 100.392C52.6244 100.766 51.7391 100.953 50.7225 100.953ZM61.1937 93.052V100.693H58.6885V83.5338H61.1602V89.9184H61.3194C61.621 89.2257 62.0819 88.6755 62.7019 88.2678C63.3219 87.86 64.1318 87.6561 65.1317 87.6561C66.0142 87.6561 66.7851 87.8377 67.4442 88.2007C68.1089 88.5638 68.6228 89.1056 68.9859 89.8262C69.3546 90.5412 69.5389 91.4349 69.5389 92.5074V100.693H67.0337V92.809C67.0337 91.865 66.7907 91.1333 66.3047 90.6138C65.8187 90.0887 65.1429 89.8262 64.2771 89.8262C63.685 89.8262 63.1543 89.9519 62.6851 90.2032C62.2215 90.4546 61.8556 90.8233 61.5875 91.3092C61.325 91.7896 61.1937 92.3705 61.1937 93.052ZM76.6272 100.978C75.8117 100.978 75.0744 100.827 74.4153 100.526C73.7562 100.219 73.2339 99.7745 72.8485 99.1936C72.4686 98.6127 72.2787 97.9005 72.2787 97.057C72.2787 96.3309 72.4184 95.7332 72.6976 95.264C72.9769 94.7948 73.354 94.4233 73.8288 94.1496C74.3036 93.8759 74.8342 93.6692 75.4207 93.5296C76.0072 93.3899 76.6049 93.2838 77.2138 93.2112C77.9846 93.1218 78.6102 93.0492 79.0906 92.9933C79.571 92.9319 79.9201 92.8342 80.1379 92.7001C80.3558 92.566 80.4647 92.3482 80.4647 92.0466V91.9879C80.4647 91.2562 80.258 90.6892 79.8447 90.287C79.4369 89.8849 78.828 89.6838 78.0181 89.6838C77.1747 89.6838 76.5099 89.8709 76.024 90.2451C75.5436 90.6138 75.2113 91.0244 75.0269 91.4768L72.6725 90.9406C72.9518 90.1586 73.3596 89.5274 73.8958 89.047C74.4376 88.561 75.0604 88.2091 75.7642 87.9913C76.4681 87.7678 77.2082 87.6561 77.9846 87.6561C78.4985 87.6561 79.0431 87.7176 79.6184 87.8405C80.1994 87.9578 80.7412 88.1756 81.2439 88.494C81.7522 88.8124 82.1683 89.2676 82.4923 89.8597C82.8163 90.4462 82.9783 91.2087 82.9783 92.1471V100.693H80.5317V98.9338H80.4312C80.2692 99.2578 80.0262 99.5762 79.7022 99.889C79.3782 100.202 78.9621 100.462 78.4538 100.668C77.9455 100.875 77.3366 100.978 76.6272 100.978ZM77.1719 98.9674C77.8645 98.9674 78.4566 98.8305 78.9481 98.5568C79.4453 98.2831 79.8223 97.9256 80.0793 97.4843C80.3418 97.0375 80.4731 96.5599 80.4731 96.0516V94.3926C80.3837 94.482 80.2105 94.5657 79.9536 94.6439C79.7022 94.7166 79.4146 94.7808 79.0906 94.8367C78.7666 94.8869 78.451 94.9344 78.1438 94.9791C77.8366 95.0182 77.5796 95.0517 77.373 95.0796C76.887 95.1411 76.4429 95.2444 76.0407 95.3897C75.6441 95.5349 75.3258 95.7444 75.0856 96.0181C74.851 96.2862 74.7337 96.6437 74.7337 97.0905C74.7337 97.7105 74.9627 98.1798 75.4207 98.4981C75.8788 98.8109 76.4625 98.9674 77.1719 98.9674ZM88.8203 93.052V100.693H86.3151V87.8237H88.7198V89.9184H88.879C89.175 89.2369 89.6386 88.6895 90.2698 88.2762C90.9066 87.8628 91.7082 87.6561 92.6745 87.6561C93.5515 87.6561 94.3195 87.8405 94.9787 88.2091C95.6378 88.5722 96.1489 89.114 96.512 89.8346C96.875 90.5552 97.0566 91.4461 97.0566 92.5074V100.693H94.5513V92.809C94.5513 91.8762 94.3084 91.1472 93.8224 90.6222C93.3364 90.0915 92.6689 89.8262 91.8199 89.8262C91.239 89.8262 90.7223 89.9519 90.2698 90.2032C89.823 90.4546 89.4683 90.8233 89.2057 91.3092C88.9488 91.7896 88.8203 92.3705 88.8203 93.052ZM105.234 100.945C104.195 100.945 103.268 100.679 102.452 100.149C101.643 99.6125 101.006 98.85 100.542 97.8614C100.084 96.8671 99.8551 95.6745 99.8551 94.2837C99.8551 92.8928 100.087 91.703 100.55 90.7143C101.02 89.7257 101.662 88.9688 102.478 88.4437C103.293 87.9187 104.218 87.6561 105.251 87.6561C106.05 87.6561 106.692 87.7902 107.178 88.0583C107.67 88.3208 108.049 88.6281 108.318 88.98C108.591 89.3319 108.803 89.6419 108.954 89.91H109.105V83.5338H111.61V100.693H109.164V98.6909H108.954C108.803 98.9646 108.586 99.2774 108.301 99.6293C108.021 99.9812 107.636 100.288 107.145 100.551C106.653 100.813 106.016 100.945 105.234 100.945ZM105.787 98.8082C106.508 98.8082 107.117 98.6182 107.614 98.2384C108.116 97.853 108.496 97.3195 108.753 96.6381C109.016 95.9566 109.147 95.1634 109.147 94.2585C109.147 93.3648 109.019 92.5828 108.762 91.9125C108.505 91.2422 108.128 90.7199 107.63 90.3457C107.133 89.9714 106.519 89.7843 105.787 89.7843C105.033 89.7843 104.405 89.9798 103.902 90.3708C103.399 90.7618 103.019 91.2953 102.762 91.9711C102.511 92.647 102.385 93.4095 102.385 94.2585C102.385 95.1187 102.514 95.8924 102.771 96.5794C103.028 97.2665 103.408 97.8111 103.91 98.2133C104.419 98.6099 105.044 98.8082 105.787 98.8082ZM115.186 100.693V87.8237H117.691V100.693H115.186ZM116.451 85.838C116.015 85.838 115.641 85.6927 115.328 85.4023C115.021 85.1062 114.868 84.7543 114.868 84.3465C114.868 83.9332 115.021 83.5813 115.328 83.2908C115.641 82.9948 116.015 82.8468 116.451 82.8468C116.887 82.8468 117.258 82.9948 117.565 83.2908C117.878 83.5813 118.035 83.9332 118.035 84.3465C118.035 84.7543 117.878 85.1062 117.565 85.4023C117.258 85.6927 116.887 85.838 116.451 85.838ZM130.705 90.9657L128.435 91.3679C128.34 91.0774 128.189 90.8009 127.982 90.5384C127.781 90.2759 127.507 90.0608 127.161 89.8932C126.815 89.7257 126.382 89.6419 125.862 89.6419C125.153 89.6419 124.561 89.8011 124.086 90.1195C123.611 90.4323 123.374 90.8372 123.374 91.3344C123.374 91.7645 123.533 92.1108 123.852 92.3733C124.17 92.6359 124.684 92.8509 125.393 93.0185L127.438 93.4877C128.622 93.7614 129.504 94.1831 130.085 94.7529C130.666 95.3226 130.957 96.0627 130.957 96.9732C130.957 97.7441 130.733 98.4311 130.286 99.0344C129.845 99.6321 129.228 100.101 128.435 100.442C127.647 100.783 126.734 100.953 125.695 100.953C124.254 100.953 123.078 100.646 122.167 100.031C121.257 99.4114 120.698 98.5317 120.492 97.3922L122.913 97.0235C123.064 97.6547 123.374 98.1323 123.843 98.4563C124.312 98.7746 124.924 98.9338 125.678 98.9338C126.499 98.9338 127.156 98.7635 127.647 98.4227C128.139 98.0764 128.384 97.6547 128.384 97.1576C128.384 96.7554 128.234 96.4174 127.932 96.1437C127.636 95.87 127.181 95.6634 126.566 95.5237L124.388 95.0461C123.187 94.7724 122.299 94.3367 121.723 93.7391C121.154 93.1414 120.869 92.3845 120.869 91.4684C120.869 90.7088 121.081 90.0441 121.506 89.4743C121.93 88.9046 122.517 88.4605 123.265 88.1421C124.014 87.8181 124.871 87.6561 125.837 87.6561C127.228 87.6561 128.323 87.9578 129.122 88.561C129.921 89.1587 130.448 89.9603 130.705 90.9657ZM139.258 100.953C137.99 100.953 136.898 100.682 135.982 100.14C135.071 99.593 134.368 98.8249 133.87 97.8362C133.379 96.842 133.133 95.6773 133.133 94.3423C133.133 93.0241 133.379 91.8622 133.87 90.8568C134.368 89.8513 135.06 89.0665 135.948 88.5024C136.842 87.9382 137.887 87.6561 139.082 87.6561C139.808 87.6561 140.512 87.7762 141.193 88.0164C141.875 88.2566 142.486 88.6336 143.028 89.1475C143.57 89.6614 143.997 90.3289 144.31 91.15C144.623 91.9656 144.779 92.957 144.779 94.1245V95.0126H134.549V93.1358H142.325C142.325 92.4767 142.19 91.8929 141.922 91.3846C141.654 90.8707 141.277 90.4658 140.791 90.1697C140.311 89.8737 139.747 89.7257 139.099 89.7257C138.395 89.7257 137.78 89.8988 137.255 90.2451C136.736 90.5859 136.334 91.0327 136.049 91.5857C135.77 92.1331 135.63 92.728 135.63 93.3704V94.8367C135.63 95.6969 135.781 96.4286 136.082 97.0319C136.39 97.6351 136.817 98.096 137.364 98.4144C137.912 98.7272 138.551 98.8836 139.283 98.8836C139.758 98.8836 140.191 98.8165 140.582 98.6825C140.973 98.5428 141.311 98.3362 141.596 98.0625C141.88 97.7887 142.098 97.4508 142.249 97.0486L144.62 97.4759C144.43 98.1742 144.09 98.7858 143.598 99.3109C143.112 99.8304 142.5 100.235 141.763 100.526C141.031 100.811 140.196 100.953 139.258 100.953Z" fill="#199AFB"/>
<path d="M163.615 87.7584C163.524 86.9475 163.147 86.3193 162.484 85.8738C161.822 85.4227 160.988 85.1971 159.983 85.1971C159.263 85.1971 158.641 85.3113 158.116 85.5398C157.59 85.7625 157.182 86.0709 156.891 86.4649C156.605 86.8532 156.462 87.2958 156.462 87.7927C156.462 88.2096 156.559 88.5693 156.753 88.872C156.953 89.1747 157.213 89.4288 157.533 89.6344C157.859 89.8343 158.207 90.0027 158.578 90.1398C158.949 90.2712 159.306 90.3797 159.649 90.4653L161.362 90.9108C161.922 91.0478 162.496 91.2334 163.084 91.4676C163.672 91.7017 164.218 92.0101 164.72 92.3927C165.223 92.7753 165.628 93.2493 165.936 93.8147C166.251 94.3801 166.408 95.0568 166.408 95.8449C166.408 96.8386 166.151 97.7209 165.637 98.4918C165.128 99.2628 164.389 99.871 163.418 100.316C162.453 100.762 161.285 100.985 159.914 100.985C158.601 100.985 157.464 100.776 156.505 100.359C155.546 99.9424 154.795 99.3513 154.252 98.5861C153.71 97.8151 153.41 96.9014 153.353 95.8449H156.008C156.06 96.4788 156.265 97.007 156.625 97.4296C156.99 97.8465 157.456 98.1578 158.021 98.3634C158.592 98.5632 159.218 98.6632 159.897 98.6632C160.645 98.6632 161.311 98.5461 161.893 98.312C162.481 98.0721 162.944 97.7409 163.281 97.3183C163.618 96.89 163.786 96.3903 163.786 95.8192C163.786 95.2995 163.638 94.8741 163.341 94.5428C163.05 94.2116 162.653 93.9375 162.15 93.7205C161.653 93.5035 161.091 93.3122 160.463 93.1465L158.39 92.5812C156.985 92.1986 155.871 91.636 155.049 90.8936C154.232 90.1512 153.824 89.169 153.824 87.9469C153.824 86.9361 154.098 86.0537 154.646 85.2999C155.194 84.5461 155.937 83.9607 156.873 83.5438C157.81 83.1212 158.866 82.9099 160.043 82.9099C161.231 82.9099 162.279 83.1184 163.187 83.5353C164.1 83.9522 164.82 84.5261 165.345 85.2571C165.871 85.9823 166.145 86.8161 166.168 87.7584H163.615ZM171.926 92.881V100.693H169.365V83.1498H171.892V89.6772H172.055C172.363 88.9691 172.834 88.4066 173.468 87.9897C174.102 87.5728 174.93 87.3644 175.952 87.3644C176.855 87.3644 177.643 87.55 178.317 87.9212C178.996 88.2924 179.522 88.8463 179.893 89.583C180.27 90.314 180.458 91.2277 180.458 92.3242V100.693H177.897V92.6326C177.897 91.6674 177.649 90.9193 177.152 90.3882C176.655 89.8514 175.964 89.583 175.079 89.583C174.473 89.583 173.931 89.7115 173.451 89.9685C172.977 90.2255 172.603 90.6024 172.329 91.0992C172.061 91.5904 171.926 92.1843 171.926 92.881ZM189.419 100.959C188.185 100.959 187.109 100.676 186.189 100.111C185.27 99.5455 184.556 98.7545 184.048 97.738C183.539 96.7215 183.285 95.5337 183.285 94.1745C183.285 92.8096 183.539 91.616 184.048 90.5938C184.556 89.5716 185.27 88.7778 186.189 88.2124C187.109 87.647 188.185 87.3644 189.419 87.3644C190.652 87.3644 191.729 87.647 192.648 88.2124C193.567 88.7778 194.281 89.5716 194.79 90.5938C195.298 91.616 195.552 92.8096 195.552 94.1745C195.552 95.5337 195.298 96.7215 194.79 97.738C194.281 98.7545 193.567 99.5455 192.648 100.111C191.729 100.676 190.652 100.959 189.419 100.959ZM189.427 98.8088C190.227 98.8088 190.889 98.5975 191.414 98.1749C191.94 97.7523 192.328 97.1898 192.579 96.4874C192.836 95.7849 192.965 95.0111 192.965 94.1659C192.965 93.3264 192.836 92.5555 192.579 91.853C192.328 91.1449 191.94 90.5767 191.414 90.1484C190.889 89.7201 190.227 89.5059 189.427 89.5059C188.622 89.5059 187.954 89.7201 187.423 90.1484C186.897 90.5767 186.506 91.1449 186.249 91.853C185.998 92.5555 185.872 93.3264 185.872 94.1659C185.872 95.0111 185.998 95.7849 186.249 96.4874C186.506 97.1898 186.897 97.7523 187.423 98.1749C187.954 98.5975 188.622 98.8088 189.427 98.8088ZM198.411 105.627V87.5357H200.912V89.6687H201.126C201.275 89.3946 201.489 89.0776 201.769 88.7178C202.049 88.358 202.437 88.0439 202.934 87.7755C203.431 87.5014 204.087 87.3644 204.904 87.3644C205.966 87.3644 206.914 87.6328 207.748 88.1696C208.582 88.7064 209.236 89.4802 209.71 90.491C210.189 91.5018 210.429 92.7182 210.429 94.1402C210.429 95.5622 210.192 96.7815 209.718 97.798C209.244 98.8088 208.593 99.5883 207.765 100.137C206.937 100.679 205.992 100.95 204.93 100.95C204.13 100.95 203.476 100.816 202.968 100.548C202.466 100.279 202.072 99.9652 201.786 99.6055C201.5 99.2457 201.281 98.9259 201.126 98.646H200.972V105.627H198.411ZM200.921 94.1145C200.921 95.0397 201.055 95.8506 201.323 96.5473C201.592 97.244 201.98 97.7894 202.488 98.1835C202.997 98.5718 203.619 98.766 204.356 98.766C205.121 98.766 205.761 98.5632 206.275 98.1578C206.789 97.7466 207.177 97.1898 207.44 96.4874C207.708 95.7849 207.842 94.994 207.842 94.1145C207.842 93.2465 207.711 92.467 207.448 91.776C207.191 91.0849 206.803 90.5396 206.283 90.1398C205.769 89.7401 205.127 89.5402 204.356 89.5402C203.613 89.5402 202.985 89.7315 202.471 90.1141C201.963 90.4967 201.578 91.0307 201.315 91.716C201.052 92.4013 200.921 93.2008 200.921 94.1145Z" fill="#294159"/>
<path d="M129.858 63.5238H80.815C77.889 63.5238 75.877 60.9998 76.637 58.2818L90.979 6.99278C91.558 4.92178 93.587 3.42578 95.817 3.42578H144.86C147.786 3.42578 149.798 5.94978 149.038 8.66778L134.696 59.9568C134.117 62.0288 132.088 63.5238 129.858 63.5238Z" fill="#294159"/>
<path d="M126.95 63.524H77.9073C74.9813 63.524 72.7803 60.856 73.3363 57.983L83.8373 3.77C84.2613 1.581 86.1783 0 88.4083 0H137.451C140.378 0 142.578 2.668 142.022 5.541L131.522 59.754C131.097 61.943 129.18 63.524 126.95 63.524Z" fill="#199AFB"/>
<path d="M97.3172 11.5739C98.8785 11.5739 100.144 10.3082 100.144 8.74693C100.144 7.18562 98.8785 5.91992 97.3172 5.91992C95.7559 5.91992 94.4902 7.18562 94.4902 8.74693C94.4902 10.3082 95.7559 11.5739 97.3172 11.5739Z" fill="#294159"/>
<path d="M97.3172 12.0749C95.4822 12.0749 93.9902 10.5829 93.9902 8.74787C93.9902 6.91387 95.4822 5.42188 97.3172 5.42188C99.1522 5.42188 100.644 6.91387 100.644 8.74787C100.643 10.5829 99.1512 12.0749 97.3172 12.0749ZM97.3172 6.42188C96.0342 6.42188 94.9902 7.46587 94.9902 8.74787C94.9902 10.0299 96.0342 11.0749 97.3172 11.0749C98.6002 11.0749 99.6442 10.0309 99.6442 8.74787C99.6442 7.46487 98.5992 6.42188 97.3172 6.42188Z" fill="#294159"/>
<path d="M123.671 11.5739C125.232 11.5739 126.498 10.3082 126.498 8.74693C126.498 7.18562 125.232 5.91992 123.671 5.91992C122.109 5.91992 120.844 7.18562 120.844 8.74693C120.844 10.3082 122.109 11.5739 123.671 11.5739Z" fill="#294159"/>
<path d="M123.671 12.0749C121.836 12.0749 120.344 10.5829 120.344 8.74787C120.344 6.91387 121.836 5.42188 123.671 5.42188C125.505 5.42188 126.997 6.91387 126.997 8.74787C126.997 10.5829 125.505 12.0749 123.671 12.0749ZM123.671 6.42188C122.388 6.42188 121.344 7.46587 121.344 8.74787C121.344 10.0299 122.388 11.0749 123.671 11.0749C124.954 11.0749 125.997 10.0309 125.997 8.74787C125.997 7.46487 124.954 6.42188 123.671 6.42188Z" fill="#294159"/>
<path d="M134.009 63.5232L138.938 38.3132C139.552 35.1732 142.303 32.9082 145.502 32.9082H160.642C164.794 32.9082 167.943 36.6512 167.232 40.7422L163.273 63.5232H134.009Z" fill="#199AFB"/>
<path d="M99.1993 72.4455C104.126 72.4455 108.12 68.4515 108.12 63.5245C108.12 58.5976 104.126 54.6035 99.1993 54.6035C94.2724 54.6035 90.2783 58.5976 90.2783 63.5245C90.2783 68.4515 94.2724 72.4455 99.1993 72.4455Z" fill="#294159"/>
<path d="M103.296 63.5247C103.296 65.7867 101.462 67.6217 99.1986 67.6217C96.9356 67.6217 95.1016 65.7877 95.1016 63.5247C95.1016 61.2617 96.9356 59.4277 99.1986 59.4277C101.461 59.4287 103.296 61.2627 103.296 63.5247Z" fill="#F4F4F4"/>
<path d="M147.755 72.4455C152.682 72.4455 156.676 68.4515 156.676 63.5245C156.676 58.5976 152.682 54.6035 147.755 54.6035C142.828 54.6035 138.834 58.5976 138.834 63.5245C138.834 68.4515 142.828 72.4455 147.755 72.4455Z" fill="#294159"/>
<path d="M67.2803 34.9102H58.5283C57.4243 34.9102 56.5283 34.0142 56.5283 32.9102C56.5283 31.8062 57.4243 30.9102 58.5283 30.9102H67.2803C68.3843 30.9102 69.2803 31.8062 69.2803 32.9102C69.2803 34.0142 68.3843 34.9102 67.2803 34.9102Z" fill="#294159"/>
<path d="M73.381 34.9102H72.501C71.397 34.9102 70.501 34.0142 70.501 32.9102C70.501 31.8062 71.397 30.9102 72.501 30.9102H73.381C74.485 30.9102 75.381 31.8062 75.381 32.9102C75.381 34.0142 74.485 34.9102 73.381 34.9102Z" fill="#294159"/>
<path d="M84.25 48.5996H60.75C59.646 48.5996 58.75 47.7036 58.75 46.5996C58.75 45.4946 59.646 44.5996 60.75 44.5996H84.25C85.354 44.5996 86.25 45.4946 86.25 46.5996C86.25 47.7036 85.355 48.5996 84.25 48.5996Z" fill="#294159"/>
<path d="M65.622 41.7539H47C45.896 41.7539 45 40.8579 45 39.7539C45 38.6499 45.896 37.7539 47 37.7539H65.622C66.726 37.7539 67.622 38.6499 67.622 39.7539C67.622 40.8579 66.726 41.7539 65.622 41.7539Z" fill="#294159"/>
<path d="M108.017 32.8349H102.494C99.7334 32.8349 97.1514 31.6059 95.4104 29.4629C93.6694 27.3199 92.9944 24.5419 93.5594 21.8389L96.3384 8.54391L98.2964 8.95291L95.5174 22.2479C95.0764 24.3579 95.6024 26.5289 96.9624 28.2019C98.3224 29.8749 100.338 30.8349 102.494 30.8349H108.017C113.345 30.8349 117.976 27.2269 119.28 22.0619L122.702 8.50391L124.641 8.99291L121.219 22.5509C119.69 28.6059 114.262 32.8349 108.017 32.8349Z" fill="#294159"/>
<path d="M147.755 67.6217C150.018 67.6217 151.852 65.7874 151.852 63.5247C151.852 61.262 150.018 59.4277 147.755 59.4277C145.492 59.4277 143.658 61.262 143.658 63.5247C143.658 65.7874 145.492 67.6217 147.755 67.6217Z" fill="#F4F4F4"/>
</svg>
